<svg width="36" height="36" viewBox="0 0 36 36" fill="none" xmlns="http://www.w3.org/2000/svg">
<g id="FontAwesome - Icons" clip-path="url(#clip0_1846_25232)">
<path id="Vector" d="M35.4375 18C35.4375 27.6305 27.6305 35.4375 18 35.4375C8.36951 35.4375 0.5625 27.6305 0.5625 18C0.5625 8.36951 8.36951 0.5625 18 0.5625C27.6305 0.5625 35.4375 8.36951 35.4375 18ZM15.983 27.233L28.9205 14.2955C29.3598 13.8562 29.3598 13.1439 28.9205 12.7046L27.3296 11.1136C26.8902 10.6742 26.1779 10.6742 25.7385 11.1136L15.1875 21.6645L10.2615 16.7385C9.82216 16.2992 9.10983 16.2992 8.67045 16.7385L7.07948 18.3295C6.64017 18.7688 6.64017 19.4811 7.07948 19.9204L14.392 27.2329C14.8314 27.6723 15.5436 27.6723 15.983 27.233Z" fill="#81AB2A"/>
</g>
<defs>
<clipPath id="clip0_1846_25232">
<rect width="36" height="36" fill="white"/>
</clipPath>
</defs>
</svg>
